<?xml version='1.0' encoding='utf-8'?>
<svg xmlns="http://www.w3.org/2000/svg" viewBox="0 0 612 414.33"><defs><style>.cls-1,.cls-10{fill:none;}.cls-2{fill:#003d47;}.cls-3{fill:#b6e0ea;}.cls-4{fill:#6ba0a5;}.cls-5{clip-path:url(#clip-path);}.cls-6{fill:#1e5663;}.cls-7{fill:#023035;}.cls-8{fill:#02292b;}.cls-9{fill:#bcbcbc;}.cls-10{stroke:#707071;stroke-miterlimit:10;}.cls-11{fill:#e98f23;}.cls-12{fill:#1b1e1e;}.cls-13{fill:#be6f29;}</style><clipPath id="clip-path"><rect class="cls-1" x="-0.49" y="-0.36" width="612.49" height="414.7"/></clipPath></defs><title>Artboard 1</title><g id="BG"><rect class="cls-2" width="612" height="364.72"/></g><g id="Stars"><polygon class="cls-3" points="54.58 131.57 53.16 136.28 50.26 137.09 53.19 138.71 54.58 146.61 55.79 138.71 58.73 137.29 55.74 136.28 54.58 131.57"/><polygon class="cls-3" points="398.39 16.83 396.97 21.54 394.06 22.35 397 23.97 398.39 31.87 399.6 23.97 402.54 22.55 399.55 21.54 398.39 16.83"/><polygon class="cls-3" points="536.44 113.71 535.03 118.42 532.12 119.23 535.05 120.85 536.44 128.75 537.65 120.85 540.59 119.43 537.6 118.42 536.44 113.71"/><polygon class="cls-3" points="462.81 12.78 461.73 16.38 459.5 17 461.75 18.24 462.81 24.28 463.74 18.24 465.99 17.15 463.7 16.38 462.81 12.78"/><polygon class="cls-3" points="22.87 152.6 21.79 156.2 19.56 156.83 21.8 158.07 22.87 164.11 23.79 158.07 26.04 156.98 23.76 156.2 22.87 152.6"/><polygon class="cls-3" points="263.08 11.07 262 14.68 259.77 15.3 262.02 16.54 263.08 22.58 264.01 16.54 266.26 15.45 263.97 14.68 263.08 11.07"/><polygon class="cls-3" points="336.98 25.04 335.9 28.64 333.67 29.26 335.92 30.5 336.98 36.54 337.91 30.5 340.16 29.41 337.87 28.64 336.98 25.04"/><polygon class="cls-3" points="336.98 25.04 335.9 28.64 333.67 29.26 335.92 30.5 336.98 36.54 337.91 30.5 340.16 29.41 337.87 28.64 336.98 25.04"/><polygon class="cls-3" points="599.72 266.93 598.31 271.64 595.4 272.45 598.33 274.07 599.72 281.97 600.93 274.07 603.87 272.65 600.88 271.64 599.72 266.93"/><polygon class="cls-3" points="588.6 75.07 587.18 79.78 584.27 80.6 587.21 82.22 588.6 90.11 589.81 82.22 592.75 80.8 589.76 79.78 588.6 75.07"/><polygon class="cls-3" points="19.93 11.01 18.51 15.72 15.6 16.54 18.54 18.16 19.93 26.05 21.14 18.16 24.08 16.73 21.09 15.72 19.93 11.01"/><polygon class="cls-3" points="148.53 9.31 147.11 14.02 144.2 14.83 147.14 16.45 148.53 24.35 149.73 16.45 152.68 15.03 149.69 14.02 148.53 9.31"/><polygon class="cls-3" points="97.55 94.22 96.14 98.94 93.22 99.75 96.16 101.37 97.55 109.27 98.76 101.37 101.7 99.95 98.71 98.94 97.55 94.22"/><polygon class="cls-3" points="455.69 62.04 453.29 70.04 448.35 71.42 453.34 74.18 455.69 87.59 457.75 74.18 462.75 71.76 457.67 70.04 455.69 62.04"/><polygon class="cls-3" points="503.44 36.88 499.9 48.69 492.61 50.73 499.96 54.79 503.44 74.58 506.47 54.79 513.85 51.22 506.35 48.69 503.44 36.88"/><polygon class="cls-3" points="30.22 63.75 26.67 75.55 19.38 77.59 26.74 81.65 30.22 101.44 33.24 81.65 40.62 78.09 33.13 75.55 30.22 63.75"/><polygon class="cls-3" points="22.95 209 20.55 217 15.6 218.38 20.59 221.13 22.95 234.54 25 221.13 30 218.72 24.92 217 22.95 209"/><polygon class="cls-3" points="202.03 37.12 199.62 45.12 194.68 46.51 199.67 49.26 202.03 62.67 204.08 49.26 209.07 46.84 204 45.12 202.03 37.12"/><polygon class="cls-3" points="577.22 186.22 574.82 194.22 569.88 195.6 574.87 198.35 577.22 211.76 579.27 198.35 584.27 195.93 579.2 194.22 577.22 186.22"/><polygon class="cls-3" points="570.02 24.35 567.62 32.35 562.68 33.73 567.67 36.48 570.02 49.9 572.08 36.48 577.08 34.07 572 32.35 570.02 24.35"/><polygon class="cls-3" points="75.88 24.35 73.48 32.35 68.54 33.73 73.52 36.48 75.88 49.9 77.93 36.48 82.93 34.07 77.86 32.35 75.88 24.35"/><polygon class="cls-3" points="599.7 5.32 598.62 8.93 596.39 9.55 598.64 10.79 599.7 16.83 600.63 10.79 602.88 9.7 600.59 8.93 599.7 5.32"/><polygon class="cls-3" points="577.14 140.86 576.06 144.46 573.83 145.08 576.08 146.32 577.14 152.36 578.07 146.32 580.32 145.23 578.03 144.46 577.14 140.86"/><polygon class="cls-3" points="12.43 280.74 11.35 284.35 9.12 284.97 11.37 286.21 12.43 292.25 13.35 286.21 15.6 285.12 13.32 284.35 12.43 280.74"/></g><g id="Moon"><circle class="cls-4" cx="305" cy="211.76" r="174.64"/></g><g id="Mountains"><g class="cls-5"><path class="cls-6" d="M-8,366.17S119.78,65.6,153.74,75.3s147,291.25,153.55,291.25Z"/><path class="cls-6" d="M354.85,366.25S462.27,132,490.82,139.53s123.58,227,129.1,227Z"/><path class="cls-2" d="M443.77,366.55l-304.87-.19S250.5,51,291.34,20.31,443.77,366.55,443.77,366.55Z"/><path class="cls-3" d="M115.62,152.21l15.09-13.3,11.15,12.58,9-13.3,13.48,13.48,11.32-13.12,9.29,14,14.48-12.7c-18.9-35.71-35.7-62-45.67-64.86-11.2-3.2-32.61,27.37-56.28,69.76l7.73-5.89Z"/><path class="cls-3" d="M484.07,191.63l11.77,9.49L511,191.63l9.7,10.42,11.39-7.11c-17.07-30.42-32.41-53.32-41.3-55.67-9.62-2.55-28.22,22.39-48.63,56.57l5.22,6.57,9.7-10.78,12.94,10.78Z"/><path class="cls-3" d="M291.34,20.05c-11.35,8.54-28.15,39-46.51,78.64l6.5,7,17.26-10.78,12.58,12.58L296.26,96l10.43,13.3L321.78,96l11.14,12.58,9-13.3,11.81,11.81C329.44,50,305.89,9.1,291.34,20.05Z"/></g></g><g id="Trees"><polygon class="cls-7" points="121.69 364.72 146.11 326.27 132.91 326.27 154.66 292.03 143.42 292.03 164.19 259.33 153.07 259.33 178.26 219.66 204.07 259.33 192.44 259.33 213.72 292.03 201.94 292.03 224.23 326.27 210.42 326.27 235.45 364.72 121.69 364.72"/><polygon class="cls-8" points="245.77 364.7 293.89 288.93 267.89 288.93 310.73 221.46 288.58 221.46 329.51 157.01 307.6 157.01 357.24 78.84 408.11 157.01 385.19 157.01 427.13 221.46 403.91 221.46 447.82 288.93 420.62 288.93 469.94 364.7 245.77 364.7"/><polygon class="cls-2" points="54.49 364.72 66.7 345.5 60.1 345.5 70.97 328.38 65.36 328.38 75.74 312.02 70.18 312.02 82.78 292.19 95.68 312.02 89.87 312.02 100.51 328.38 94.62 328.38 105.76 345.5 98.86 345.5 111.37 364.72 54.49 364.72"/><polygon class="cls-2" points="480.26 364.7 496.72 338.79 487.83 338.79 502.48 315.71 494.9 315.71 508.9 293.66 501.41 293.66 518.39 266.93 535.79 293.66 527.95 293.66 542.29 315.71 534.35 315.71 549.37 338.79 540.07 338.79 556.94 364.7 480.26 364.7"/></g><g id="FG"><g class="cls-5"><path class="cls-7" d="M-23.67,363.66c33.34-2.39,43.91-7.85,64.29-4.59s67.69.32,74.38,1.79,60.25,4.68,70.67,3.07,43.28,3.43,62,2.05,59.57-4.65,68.69-2.32,32-.39,52-1.06,36-1.59,46.67-.46,24.07.76,44.67.46,54.53-3.73,58.93-3.53,36.16-3.54,51.28,0,41.54,3.94,45.79,2.11,20.66,32.42,20.66,32.42l12,184.33L-34.33,559.27Z"/></g></g><g id="Tent"><rect class="cls-9" x="434.79" y="362.6" width="2.67" height="11.17" rx="1.33" ry="1.33"/><rect class="cls-9" x="161.19" y="362.6" width="2.67" height="11.17" rx="1.33" ry="1.33"/><polyline class="cls-10" points="306.95 263.48 433.88 365.72 435.08 367.98 437.45 368.6"/><polyline class="cls-10" points="293.75 263.48 164.6 366.1 163.61 368.37 161.09 368.6"/><path class="cls-11" d="M300.54,220.14c-25.9,61.14-60,115.5-108.11,163.9H408.6C356.77,332.75,325.45,280.6,300.54,220.14Z"/><polygon class="cls-12" points="274.45 384.22 325.45 384.22 300.35 280.22 274.45 384.22"/><path class="cls-13" d="M247.64,384h27.05L300.35,280.1C284.87,324.88,267.1,360.94,247.64,384Z"/><path class="cls-13" d="M352.31,384H325.26L300.44,280.22C315.93,325,332.85,360.94,352.31,384Z"/></g><g id="Grass"><path class="cls-7" d="M379.54,385.25s-3.72-10.84-2.27-14.88c1.15,3.74,5.1,6.47,5.1,6.47l2.83-9.71,4.44,8.41s3.41-3.71,3.41-4.92,3.87,8.64,3.87,8.64,3.24-5.25,3.64-7.28,1.92,12.94-.5,13.35S379.54,385.25,379.54,385.25Z"/><path class="cls-7" d="M205.76,385.49S204.34,373.16,202,369s6.52,8.25,6.52,8.25l3.82-10.75v11s6-4,6-8.5,1.72,7.95,2,10.53c.37,3.06.54,6-7,6Z"/><path class="cls-6" d="M218.57,386.25l-3.33-8,4.66,4.28,1.67-3,1.67,3,1.9-5.48L226.9,382l3-2.43v4.79C229.9,386.32,218.57,386.25,218.57,386.25Z"/></g></svg>